<svg xmlns="http://www.w3.org/2000/svg" xmlns:svgjs="http://svgjs.com/svgjs" xmlns:xlink="http://www.w3.org/1999/xlink" width="288" height="288"><svg xmlns="http://www.w3.org/2000/svg" width="288" height="288" viewBox="0 0 32 32"><path fill="#4f1f1d" d="M27,26H5a3,3,0,0,1-3-3V9A3,3,0,0,1,5,6H27a3,3,0,0,1,3,3V23A3,3,0,0,1,27,26ZM5,8A1,1,0,0,0,4,9V23a1,1,0,0,0,1,1H27a1,1,0,0,0,1-1V9a1,1,0,0,0-1-1Z" class="color231f20 svgShape"/><path fill="#4f1f1d" d="M16,17a1,1,0,0,1-.55-.17l-12-8A1,1,0,0,1,4.55,7.17l12,8A1,1,0,0,1,16,17Z" class="color231f20 svgShape"/><path fill="#4f1f1d" d="M16,17a1,1,0,0,1-.56-1.83l12-8a1,1,0,0,1,1.11,1.66l-12,8A1,1,0,0,1,16,17Z" class="color231f20 svgShape"/></svg></svg>